<?xml version="1.0" standalone="no"?><!DOCTYPE svg PUBLIC "-//W3C//DTD SVG 1.1//EN" "http://www.w3.org/Graphics/SVG/1.1/DTD/svg11.dtd"><svg class="icon" width="200px" height="200.00px" viewBox="0 0 1024 1024" version="1.1" xmlns="http://www.w3.org/2000/svg"><path fill="#333333" d="M1008 103.296l0 817.376c0 23.872-8.608 44.336-25.776 61.536C964.992 999.424 944.48 1008 920.704 1008L103.296 1008c-23.776 0-44.336-8.576-61.52-25.792C24.624 965.008 16 944.544 16 920.672L16 103.296c0-23.792 8.624-44.288 25.776-61.52C58.96 24.592 79.52 16 103.296 16l817.408 0c23.776 0 44.288 8.592 61.52 25.776C999.392 58.992 1008 79.504 1008 103.296zM559.664 178.672c0-7.248-7.312-10.896-21.872-10.896-2 0-19.136-0.176-51.568-0.496-32.448-0.336-56.416-0.336-71.968 0-15.504 0.336-35.52 1.664-59.968 3.984-24.544 2.304-44.016 5.776-58.528 10.384-38.368 12.56-68.928 33.056-91.776 61.552-22.816 28.4-34.224 62.112-34.224 101.168 0 46.288 14.544 83.648 43.648 112.032 29.04 28.416 66.784 42.32 113.072 41.664l5.984 0c0 15.92 0.656 27.456 1.952 34.784 1.328 7.264 3.008 11.072 5.008 11.408s4.464 1.952 7.408 4.96c2.96 2.944 5.744 7.744 8.464 14.368-36.384 0-70.304 3.92-101.712 11.856-31.408 7.968-59.616 23.776-84.8 47.664-25.088 23.776-37.664 53.872-37.664 90.272 0 50.88 20.336 88.784 61.024 113.6 40.688 24.752 88.112 37.168 142.304 37.168 60.88 0 113.632-15.04 158.24-45.152 44.656-30.096 67.008-74.192 67.008-132.416 0-25.104-6.448-49.248-19.36-72.4-12.848-23.152-27.28-41.344-43.12-54.576-15.904-13.184-30.256-25.936-43.136-38.16-12.912-12.288-19.376-21.696-19.376-28.336 0-7.248 4.96-15.68 14.928-25.28 9.904-9.584 20.928-19.168 33.2-28.768 12.288-9.584 23.344-24.96 33.264-46.192 9.904-21.088 14.88-45.648 14.88-73.424 0-50.208-14.544-85.6-43.648-106.096 0.704 0 5.744-0.512 15.408-1.504 9.6-0.992 16.336-1.968 20.336-2.976 3.904-1.008 9.6-2.624 16.864-4.96 7.264-2.32 12.368-5.632 15.376-9.92C558.112 189.76 559.664 184.672 559.664 178.672zM480.256 689.584c0 29.12-14.208 52.56-42.64 70.368-28.464 17.904-58.24 26.816-89.344 26.816-31.04 0-59.312-7.888-84.752-23.776-25.456-15.888-38.224-38.416-38.224-67.488 0-31.776 13.552-55.568 40.688-71.424 27.088-15.856 57.52-23.792 91.248-23.792 30.464 0 58.56 7.792 84.384 23.296C467.328 639.168 480.256 661.168 480.256 689.584zM425.664 347.312c0 23.184-5.12 43.04-15.392 59.504-10.24 16.576-26.272 24.88-48.064 24.88-28.464 0-51.056-15.04-67.968-45.152-16.832-30.096-25.28-60.336-25.28-90.8 0-23.136 5.12-42.928 15.408-59.488 10.224-16.512 26.272-24.8 48.128-24.8 28.416 0 51.056 15.024 67.92 45.12C417.296 286.704 425.664 316.944 425.664 347.312zM772.928 340.4l120 0 0-59.536-120 0L772.928 159.84l-59.52 0 0 121.024-121.008 0 0 59.536 121.008 0 0 120.016 59.52 0L772.928 340.4z" /></svg>