<?xml version="1.0" standalone="no"?><!DOCTYPE svg PUBLIC "-//W3C//DTD SVG 1.1//EN" "http://www.w3.org/Graphics/SVG/1.1/DTD/svg11.dtd"><svg class="icon" width="200px" height="200.00px" viewBox="0 0 1024 1024" version="1.1" xmlns="http://www.w3.org/2000/svg"><path fill="#333333" d="M726.313064 501.491669c-34.749432-6.595208-17.86488-24.882714-17.86488-24.882714s34.010605-54.80828-6.723122-94.650707c-50.479695-49.352011-173.155688 6.27696-173.155688 6.27696-46.855144 14.21577-34.43937-6.487761-27.809369-41.724287 0-41.515532-14.536065-111.774713-139.344628-70.2776-124.688837 41.724287-231.742015 187.920974-231.742015 187.920974C55.223742 561.293683 65.076134 636.373659 65.076134 636.373659c18.60166 165.748998 198.709691 211.246215 338.792123 222.014466 147.385768 11.301394 346.296027-49.675376 406.612765-174.953637C870.785479 557.955658 761.183246 508.290515 726.313064 501.491669zM414.780795 811.651684c-146.310274 6.684236-264.584004-65.055668-264.584004-160.526043 0-95.573729 118.27373-172.219363 264.584004-178.813548 146.404418-6.589069 264.919648 52.392254 264.919648 147.773601C679.69942 715.536626 561.184189 805.15062 414.780795 811.651684zM385.587915 535.25975c-147.156548 16.842597-130.150222 151.623279-130.150222 151.623279s-1.503237 42.679032 39.45971 64.414055c86.09996 45.603641 174.751023 17.992793 219.566718-38.565341C559.26549 656.155191 532.959358 518.538927 385.587915 535.25975zM348.476693 724.429157c-27.474748 3.14769-49.621141-12.332886-49.621141-34.817993 0-22.376637 19.676132-45.808302 47.164183-48.615231 31.55467-2.937912 52.090379 14.839986 52.090379 37.32407C398.111137 700.698686 375.843994 721.388914 348.476693 724.429157zM435.221336 652.172483c-9.314133 6.79987-20.763906 5.858428-25.674753-2.296299-5.127787-7.956206-3.209088-20.708648 6.200212-27.40721 10.912537-7.937786 22.25384-5.652743 27.16571 2.315742C447.837678 632.92614 444.308295 645.157719 435.221336 652.172483zM797.972127 443.134563c11.851932 0 21.931498-8.579399 23.636327-19.768229 0.214894-0.832971 0.322341-1.564635 0.322341-2.5071 17.958-158.001547-132.405589-130.810255-132.405589-130.810255-13.355169 0-24.066115 10.564613-24.066115 23.737634 0 12.96222 10.710946 23.521716 24.066115 23.521716 108.004853-23.311939 84.167958 82.304518 84.167958 82.304518C773.692141 432.677397 784.577049 443.134563 797.972127 443.134563zM780.443915 167.344333c-51.996235-11.902074-105.4691-1.642406-120.447233 1.164522-1.154289 0.107447-2.242064 1.174756-3.302209 1.384533-0.522909 0.102331-0.846274 0.624217-0.846274 0.624217-14.763239 4.088108-25.567305 17.45965-25.567305 33.253358 0 18.825764 15.608489 34.308387 35.069727 34.308387 0 0 18.939351-2.483564 31.769564-7.388271 12.723789-5.012154 120.407324-3.735068 173.893492 84.098373 29.190833 64.100924 12.830213 107.000989 10.790764 113.896026 0 0-6.940063 16.657378-6.940063 33.048697 0 18.935258 15.622816 30.824029 34.95 30.824029 16.174378 0 29.743418-2.152013 33.715893-28.886911l0.214894 0C1001.164922 276.510638 873.469612 188.574866 780.443915 167.344333z" /></svg>