<?xml version="1.0" standalone="no"?><!DOCTYPE svg PUBLIC "-//W3C//DTD SVG 1.1//EN" "http://www.w3.org/Graphics/SVG/1.1/DTD/svg11.dtd"><svg class="icon" width="200px" height="200.00px" viewBox="0 0 1024 1024" version="1.1" xmlns="http://www.w3.org/2000/svg"><path fill="#333333" d="M64 64v895.993L960 960V64H64z m402.877 675.102c-116.327 0-235.231-56.369-235.231-149.096 0-48.477 30.708-104.537 83.599-157.434 70.635-70.602 152.99-102.77 183.959-71.775 13.664 13.65 14.989 37.293 6.206 65.521-4.58 14.225 13.343 6.348 13.343 6.377 57.093-23.902 106.895-25.299 125.094 0.699 9.705 13.861 8.779 33.297-0.17 55.828-4.138 10.367 1.275 11.986 9.177 14.342 32.163 9.982 67.96 34.1 67.96 76.598-0.001 70.338-101.442 158.94-253.937 158.94z m210.588-294.829c3.771-11.623 1.414-24.873-7.356-34.602-8.771-9.697-21.719-13.379-33.659-10.848v-0.02c-9.957 2.17-19.776-4.23-21.914-14.176-2.146-9.998 4.219-19.83 14.209-21.951 24.434-5.193 50.891 2.365 68.813 22.24v-0.006c17.964 19.883 22.759 46.953 15.078 70.732-3.13 9.715-13.542 15.014-23.264 11.904-9.713-3.154-15.021-13.578-11.892-23.275h-0.015z m107.699 34.786c-0.008 0.025-0.008 0.064-0.008 0.082-3.649 11.262-15.753 17.439-27.026 13.789-11.307-3.65-17.484-15.732-13.835-27.035v-0.012c11.201-34.672 4.097-74.232-22.052-103.229-26.197-28.994-64.79-40.082-100.457-32.51-11.6 2.482-23.012-4.93-25.475-16.512-2.495-11.584 4.91-23.004 16.501-25.475h0.016c50.144-10.66 104.465 4.896 141.286 45.721 36.846 40.79 46.77 96.388 31.05 145.181zM445.378 485.191c-92.809 9.172-163.195 66.006-157.168 126.939 6.031 60.949 86.159 102.891 178.977 93.742 92.833-9.176 163.191-66.025 157.176-126.986-6.023-60.917-86.156-102.884-178.985-93.695z m81.445 143.725c-18.947 42.84-73.431 65.684-119.664 50.781-44.62-14.408-63.515-58.471-43.975-98.166 19.184-38.926 69.111-60.941 113.284-49.443 45.71 11.814 69.042 54.939 50.355 96.828zM432.373 596.268c-14.379-6.031-32.96 0.176-41.828 14.078-8.978 13.965-4.771 30.611 9.502 37.105 14.484 6.609 33.712 0.334 42.686-13.988 8.823-14.473 4.173-31-10.36-37.195zM467.796 581.572c-5.515-2.182-12.416 0.467-15.655 5.893-3.138 5.459-1.406 11.668 4.129 13.941 5.617 2.316 12.794-0.35 16.042-5.91 3.1-5.584 1.088-11.867-4.516-13.924z" /></svg>