<?xml version="1.0" standalone="no"?><!DOCTYPE svg PUBLIC "-//W3C//DTD SVG 1.1//EN" "http://www.w3.org/Graphics/SVG/1.1/DTD/svg11.dtd"><svg class="icon" width="200px" height="200.00px" viewBox="0 0 1024 1024" version="1.1" xmlns="http://www.w3.org/2000/svg"><path fill="#333333" d="M64 64v896h896V64H64z m375.49 668c-75.643 0-139.483-30.769-139.483-79.982 0-50.016 58.234-98.164 133.909-98.164 8.205 0 15.772-0.249 23.597-0.249-10.353-10.052-18.549-22.437-18.549-37.692 0-8.994 2.908-17.681 6.939-25.41-4.127 0.301-8.307 0.403-12.641 0.403-62.141 0-103.778-44.253-103.778-99.023 0-53.6 57.496-99.882 118.563-99.882h136.258l-30.494 22.032h-43.195c28.646 11.007 43.917 44.407 43.917 78.711 0 28.799-15.952 53.549-38.481 71.136-21.98 17.223-26.152 24.404-26.152 38.996 0 12.488 23.528 33.651 35.852 42.396 36.007 25.463 47.648 49.104 47.648 88.559C573.398 683.042 525.75 732 439.49 732z m284.503-208.306h-53.04v53.051h-42.696v-53.051h-53.034v-42.687h53.034v-53.05h42.696v53.05h53.04v42.687zM482.212 571.946c-10.319-3.335-21.706-5.306-33.899-5.46-52.302-0.559-99.169 31.878-99.169 70.885 0 39.757 37.769 72.847 90.087 72.847 73.535 0 99.151-31.07 99.151-70.824 0-4.799-0.6-9.504-1.684-14.052-5.744-22.531-26.118-33.642-54.486-53.396zM505.549 395.417c-6.053-46.128-39.428-83.105-74.521-84.162-35.086-1.017-58.641 34.252-52.578 80.378 6.056 46.076 39.438 84.317 74.524 85.376 35.103 1.066 58.631-35.516 52.575-81.592z" /></svg>