<?xml version="1.0" standalone="no"?><!DOCTYPE svg PUBLIC "-//W3C//DTD SVG 1.1//EN" "http://www.w3.org/Graphics/SVG/1.1/DTD/svg11.dtd"><svg class="icon" width="200px" height="200.00px" viewBox="0 0 1024 1024" version="1.1" xmlns="http://www.w3.org/2000/svg"><path fill="#333333" d="M64 64v896h896V64H64z m638.874 350.078c0.181 4.238 0.263 8.477 0.263 12.766 0 130.191-99.021 280.252-280.182 280.252-55.605 0-107.373-16.341-150.955-44.245a207.346 207.346 0 0 0 23.501 1.319c46.124 0 88.59-15.735 122.297-42.147-43.102-0.769-79.459-29.271-91.979-68.346 5.981 1.155 12.175 1.709 18.515 1.709 8.998 0 17.69-1.156 25.959-3.47-45.078-9.021-79.018-48.803-79.018-96.57v-1.208c13.289 7.37 28.488 11.834 44.625 12.326-26.425-17.661-43.813-47.871-43.813-81.992 0-18.05 4.855-34.94 13.331-49.579 48.601 59.65 121.142 98.831 202.977 102.958-1.691-7.207-2.529-14.691-2.529-22.452 0-54.361 44.092-98.494 98.443-98.494 28.338 0 53.953 11.998 71.877 31.091a196.748 196.748 0 0 0 62.553-23.832c-7.331 22.951-22.947 42.259-43.293 54.482 19.905-2.426 38.904-7.708 56.555-15.521-13.169 19.75-29.884 37.092-49.127 50.953z" /></svg>